  0
SECTION
  2
HEADER
  9
$ACADVER
  1
AC1006
  9
$EXTMIN
 10
0.000000
 20
0.000000
 30
0.000000
  9
$EXTMAX
 10
64.000000
 20
64.000000
 30
0.000000
  0
ENDSEC
  0
SECTION
  2
ENTITIES
  0
POLYLINE
  8
0
 66
1
 70
1
  0
VERTEX
  8
0
 10
28.631094
 20
60.013426
 42
0.059502
  0
VERTEX
  8
0
 10
23.214383
 20
52.359030
 42
0.081110
  0
VERTEX
  8
0
 10
20.438754
 20
44.388907
 42
0.098521
  0
VERTEX
  8
0
 10
20.605923
 20
37.170889
 42
0.142410
  0
VERTEX
  8
0
 10
23.660651
 20
31.612076
 42
0.022259
  0
VERTEX
  8
0
 10
25.718504
 20
29.729721
 42
0.125186
  0
VERTEX
  8
0
 10
27.051520
 20
29.090233
 42
0.522711
  0
VERTEX
  8
0
 10
27.508032
 20
29.528558
 42
0.083648
  0
VERTEX
  8
0
 10
27.035184
 20
30.934259
 42
-0.079251
  0
VERTEX
  8
0
 10
26.156389
 20
33.473159
 42
-0.074657
  0
VERTEX
  8
0
 10
26.085069
 20
36.214034
 42
-0.077394
  0
VERTEX
  8
0
 10
26.812016
 20
38.766036
 42
-0.096815
  0
VERTEX
  8
0
 10
28.250000
 20
40.759074
 42
-0.049700
  0
VERTEX
  8
0
 10
30.437022
 20
42.433546
 42
-0.039461
  0
VERTEX
  8
0
 10
33.083740
 20
43.795467
 42
-0.040147
  0
VERTEX
  8
0
 10
35.848085
 20
44.699602
 42
-0.059032
  0
VERTEX
  8
0
 10
38.383598
 20
45.000000
 42
-0.062315
  0
VERTEX
  8
0
 10
42.050719
 20
44.541188
 42
-0.025848
  0
VERTEX
  8
0
 10
46.829952
 20
43.059546
 42
-0.025493
  0
VERTEX
  8
0
 10
51.743784
 20
40.962990
 42
-0.034535
  0
VERTEX
  8
0
 10
55.923178
 20
38.551697
 42
0.000000
  0
VERTEX
  8
0
 10
61.000000
 20
35.135248
 42
0.000000
  0
VERTEX
  8
0
 10
61.000000
 20
41.613629
 42
0.000000
  0
VERTEX
  8
0
 10
61.000000
 20
48.092010
 42
0.000000
  0
VERTEX
  8
0
 10
55.750000
 20
50.536236
 42
0.025534
  0
VERTEX
  8
0
 10
53.042058
 20
51.632503
 42
0.028003
  0
VERTEX
  8
0
 10
50.317841
 20
52.408844
 42
0.027699
  0
VERTEX
  8
0
 10
47.497106
 20
52.882142
 42
0.023940
  0
VERTEX
  8
0
 10
44.500000
 20
53.071179
 42
0.000000
  0
VERTEX
  8
0
 10
38.500000
 20
53.161895
 42
0.000000
  0
VERTEX
  8
0
 10
42.414354
 20
54.985608
 42
0.000000
  0
VERTEX
  8
0
 10
46.328708
 20
56.809322
 42
0.000000
  0
VERTEX
  8
0
 10
39.252136
 20
60.373026
 42
0.000000
  0
VERTEX
  8
0
 10
32.175565
 20
63.936731
 42
0.000000
  0
SEQEND
  0
POLYLINE
  8
0
 66
1
 70
1
  0
VERTEX
  8
0
 10
9.677475
 20
50.493950
 42
0.007928
  0
VERTEX
  8
0
 10
7.825989
 20
49.191582
 42
0.011920
  0
VERTEX
  8
0
 10
6.257565
 20
47.992537
 42
0.006858
  0
VERTEX
  8
0
 10
4.993276
 20
46.948510
 42
0.200489
  0
VERTEX
  8
0
 10
4.807283
 20
46.583337
 42
0.108411
  0
VERTEX
  8
0
 10
5.324561
 20
42.929289
 42
0.056060
  0
VERTEX
  8
0
 10
7.418368
 20
38.793112
 42
0.054188
  0
VERTEX
  8
0
 10
10.517824
 20
35.029154
 42
0.074235
  0
VERTEX
  8
0
 10
14.070455
 20
32.463566
 42
0.000000
  0
VERTEX
  8
0
 10
16.902679
 20
30.998966
 42
0.000000
  0
VERTEX
  8
0
 10
14.973301
 20
35.249483
 42
-0.037566
  0
VERTEX
  8
0
 10
13.688340
 20
38.758662
 42
-0.053177
  0
VERTEX
  8
0
 10
13.127110
 20
42.034887
 42
-0.051390
  0
VERTEX
  8
0
 10
13.260931
 20
45.439480
 42
-0.032230
  0
VERTEX
  8
0
 10
14.078472
 20
49.343771
 42
0.009129
  0
VERTEX
  8
0
 10
14.464168
 20
50.838098
 42
0.014071
  0
VERTEX
  8
0
 10
14.737416
 20
52.144446
 42
0.008376
  0
VERTEX
  8
0
 10
14.913669
 20
53.227632
 42
0.249700
  0
VERTEX
  8
0
 10
14.822895
 20
53.480346
 42
0.321118
  0
VERTEX
  8
0
 10
14.564214
 20
53.510260
 42
0.004894
  0
VERTEX
  8
0
 10
13.178234
 20
52.723874
 42
0.011015
  0
VERTEX
  8
0
 10
11.549552
 20
51.729996
 42
0.006805
  0
SEQEND
  0
POLYLINE
  8
0
 66
1
 70
1
  0
VERTEX
  8
0
 10
39.088067
 20
31.177217
 42
-0.089037
  0
VERTEX
  8
0
 10
39.564940
 20
28.180766
 42
-0.110218
  0
VERTEX
  8
0
 10
38.896756
 20
25.442417
 42
-0.099343
  0
VERTEX
  8
0
 10
37.046824
 20
23.043583
 42
-0.061100
  0
VERTEX
  8
0
 10
34.080131
 20
21.040880
 42
-0.082172
  0
VERTEX
  8
0
 10
28.800797
 20
19.362747
 42
-0.085917
  0
VERTEX
  8
0
 10
23.346883
 20
19.513429
 42
-0.067279
  0
VERTEX
  8
0
 10
17.231464
 20
21.631301
 42
-0.030265
  0
VERTEX
  8
0
 10
9.878134
 20
25.922543
 42
0.000000
  0
VERTEX
  8
0
 10
4.000000
 20
29.847811
 42
0.000000
  0
VERTEX
  8
0
 10
4.000000
 20
23.013112
 42
0.000000
  0
VERTEX
  8
0
 10
4.000000
 20
16.178413
 42
0.000000
  0
VERTEX
  8
0
 10
8.734494
 20
13.886484
 42
0.032837
  0
VERTEX
  8
0
 10
11.146032
 20
12.908742
 42
0.020237
  0
VERTEX
  8
0
 10
14.090704
 20
12.064949
 42
0.019332
  0
VERTEX
  8
0
 10
17.290448
 20
11.416512
 42
0.020195
  0
VERTEX
  8
0
 10
20.484494
 20
11.028451
 42
0.000000
  0
VERTEX
  8
0
 10
27.500000
 20
10.462347
 42
0.000000
  0
VERTEX
  8
0
 10
23.654639
 20
8.410533
 42
0.000000
  0
VERTEX
  8
0
 10
19.809278
 20
6.358718
 42
0.000000
  0
VERTEX
  8
0
 10
25.779685
 20
3.679359
 42
0.005845
  0
VERTEX
  8
0
 10
28.140103
 20
2.653047
 42
0.007972
  0
VERTEX
  8
0
 10
30.292558
 20
1.787062
 42
0.005542
  0
VERTEX
  8
0
 10
32.107512
 20
1.113253
 42
0.086313
  0
VERTEX
  8
0
 10
32.758683
 20
1.000000
 42
0.206696
  0
VERTEX
  8
0
 10
34.415904
 20
1.715656
 42
0.014995
  0
VERTEX
  8
0
 10
37.796508
 20
5.527549
 42
0.021792
  0
VERTEX
  8
0
 10
41.028723
 20
9.762233
 42
0.045561
  0
VERTEX
  8
0
 10
43.077519
 20
13.362995
 42
0.072798
  0
VERTEX
  8
0
 10
44.715902
 20
19.041253
 42
0.072443
  0
VERTEX
  8
0
 10
44.662231
 20
24.960733
 42
0.081819
  0
VERTEX
  8
0
 10
43.021244
 20
29.963221
 42
0.150918
  0
VERTEX
  8
0
 10
40.038522
 20
32.979384
 42
0.019428
  0
VERTEX
  8
0
 10
38.884540
 20
33.540448
 42
0.393386
  0
VERTEX
  8
0
 10
38.547496
 20
33.422779
 42
0.200240
  0
VERTEX
  8
0
 10
38.503767
 20
32.938596
 42
0.007562
  0
SEQEND
  0
POLYLINE
  8
0
 66
1
 70
1
  0
VERTEX
  8
0
 10
50.544359
 20
28.874273
 42
-0.043529
  0
VERTEX
  8
0
 10
51.531185
 20
25.044440
 42
-0.034389
  0
VERTEX
  8
0
 10
51.943312
 20
20.783778
 42
-0.035342
  0
VERTEX
  8
0
 10
51.767662
 20
16.699268
 42
-0.062503
  0
VERTEX
  8
0
 10
50.972022
 20
13.426411
 42
0.013890
  0
VERTEX
  8
0
 10
50.602304
 20
12.366232
 42
0.020714
  0
VERTEX
  8
0
 10
50.343874
 20
11.418999
 42
0.016581
  0
VERTEX
  8
0
 10
50.193895
 20
10.646503
 42
0.240482
  0
VERTEX
  8
0
 10
50.277191
 20
10.389476
 42
0.366368
  0
VERTEX
  8
0
 10
51.361666
 20
10.299218
 42
0.008043
  0
VERTEX
  8
0
 10
55.931381
 20
13.669100
 42
0.009511
  0
VERTEX
  8
0
 10
60.339128
 20
17.164903
 42
0.223948
  0
VERTEX
  8
0
 10
61.000000
 20
18.566405
 42
0.130225
  0
VERTEX
  8
0
 10
60.035339
 20
22.207409
 42
0.033672
  0
VERTEX
  8
0
 10
56.652236
 20
27.311840
 42
0.031221
  0
VERTEX
  8
0
 10
52.710663
 20
31.851037
 42
0.200974
  0
VERTEX
  8
0
 10
49.967634
 20
33.000000
 42
0.409968
  0
VERTEX
  8
0
 10
49.714563
 20
32.750577
 42
0.038370
  0
VERTEX
  8
0
 10
49.774494
 20
31.788068
 42
0.032202
  0
VERTEX
  8
0
 10
50.048888
 20
30.456811
 42
0.017885
  0
SEQEND
  0
ENDSEC
  0
EOF
