  0
SECTION
  2
HEADER
  9
$ACADVER
  1
AC1006
  9
$EXTMIN
 10
0.000000
 20
0.000000
 30
0.000000
  9
$EXTMAX
 10
64.000000
 20
64.000000
 30
0.000000
  0
ENDSEC
  0
SECTION
  2
ENTITIES
  0
POLYLINE
  8
0
 66
1
 70
1
  0
VERTEX
  8
0
 10
24.053296
 20
58.876754
 42
0.051571
  0
VERTEX
  8
0
 10
17.368405
 20
53.338990
 42
0.047278
  0
VERTEX
  8
0
 10
11.738200
 20
46.397089
 42
0.047436
  0
VERTEX
  8
0
 10
7.528932
 20
38.546298
 42
0.052760
  0
VERTEX
  8
0
 10
5.055261
 20
30.314927
 42
0.083305
  0
VERTEX
  8
0
 10
4.896680
 20
22.497636
 42
0.086646
  0
VERTEX
  8
0
 10
7.314674
 20
15.171755
 42
0.083538
  0
VERTEX
  8
0
 10
12.172237
 20
8.891529
 42
0.070703
  0
VERTEX
  8
0
 10
19.086099
 20
4.114839
 42
0.011529
  0
VERTEX
  8
0
 10
21.616898
 20
2.922291
 42
0.013584
  0
VERTEX
  8
0
 10
24.066525
 20
1.914984
 42
0.012506
  0
VERTEX
  8
0
 10
26.167121
 20
1.176757
 42
0.078396
  0
VERTEX
  8
0
 10
27.287531
 20
1.000000
 42
0.080309
  0
VERTEX
  8
0
 10
28.307453
 20
1.164881
 42
0.227743
  0
VERTEX
  8
0
 10
28.812144
 20
1.652695
 42
0.112908
  0
VERTEX
  8
0
 10
28.940130
 20
2.634024
 42
0.014561
  0
VERTEX
  8
0
 10
28.675768
 20
4.750000
 42
-0.002799
  0
VERTEX
  8
0
 10
28.404407
 20
6.572440
 42
-0.001193
  0
VERTEX
  8
0
 10
28.060753
 20
9.014063
 42
-0.001181
  0
VERTEX
  8
0
 10
27.706605
 20
11.619834
 42
-0.001551
  0
VERTEX
  8
0
 10
27.396355
 20
14.000000
 42
0.023846
  0
VERTEX
  8
0
 10
26.846140
 20
17.126569
 42
0.064631
  0
VERTEX
  8
0
 10
26.073654
 20
19.236497
 42
0.062589
  0
VERTEX
  8
0
 10
24.772855
 20
21.117370
 42
0.021313
  0
VERTEX
  8
0
 10
22.449998
 20
23.500000
 42
-0.049137
  0
VERTEX
  8
0
 10
19.114774
 20
27.324862
 42
-0.073011
  0
VERTEX
  8
0
 10
17.092984
 20
31.274047
 42
-0.078873
  0
VERTEX
  8
0
 10
16.384735
 20
35.400519
 42
-0.069007
  0
VERTEX
  8
0
 10
16.931998
 20
39.747460
 42
-0.057884
  0
VERTEX
  8
0
 10
18.452982
 20
43.570247
 42
-0.033639
  0
VERTEX
  8
0
 10
21.086644
 20
47.756449
 42
-0.031994
  0
VERTEX
  8
0
 10
24.474433
 20
51.837994
 42
-0.034076
  0
VERTEX
  8
0
 10
28.288972
 20
55.362641
 42
0.000000
  0
VERTEX
  8
0
 10
32.077944
 20
58.412832
 42
0.000000
  0
VERTEX
  8
0
 10
35.650095
 20
56.489102
 42
-0.074688
  0
VERTEX
  8
0
 10
40.497439
 20
52.856645
 42
-0.049680
  0
VERTEX
  8
0
 10
44.868273
 20
47.444113
 42
-0.050562
  0
VERTEX
  8
0
 10
47.978527
 20
41.455342
 42
-0.094774
  0
VERTEX
  8
0
 10
49.000000
 20
36.114760
 42
-0.039519
  0
VERTEX
  8
0
 10
48.697570
 20
32.294369
 42
-0.069602
  0
VERTEX
  8
0
 10
47.772653
 20
29.272000
 42
-0.063918
  0
VERTEX
  8
0
 10
45.990409
 20
26.451991
 42
-0.028523
  0
VERTEX
  8
0
 10
42.996379
 20
23.227214
 42
0.025669
  0
VERTEX
  8
0
 10
40.537787
 20
20.609244
 42
0.078464
  0
VERTEX
  8
0
 10
39.276271
 20
18.533440
 42
0.055188
  0
VERTEX
  8
0
 10
38.491736
 20
15.796975
 42
0.008251
  0
VERTEX
  8
0
 10
37.621296
 20
10.131244
 42
0.003084
  0
VERTEX
  8
0
 10
36.843131
 20
4.168413
 42
0.053225
  0
VERTEX
  8
0
 10
36.809268
 20
2.205688
 42
0.226648
  0
VERTEX
  8
0
 10
37.318192
 20
1.346695
 42
0.149832
  0
VERTEX
  8
0
 10
38.436155
 20
1.009769
 42
0.123038
  0
VERTEX
  8
0
 10
44.326057
 20
2.511069
 42
0.051072
  0
VERTEX
  8
0
 10
51.168259
 20
7.156800
 42
0.050802
  0
VERTEX
  8
0
 10
57.055367
 20
13.219025
 42
0.101607
  0
VERTEX
  8
0
 10
60.048299
 20
19.159365
 42
0.090835
  0
VERTEX
  8
0
 10
60.767891
 20
27.807408
 42
0.058318
  0
VERTEX
  8
0
 10
58.617005
 20
37.673046
 42
0.057068
  0
VERTEX
  8
0
 10
54.151842
 20
47.031682
 42
0.075279
  0
VERTEX
  8
0
 10
48.002664
 20
54.193640
 42
0.022987
  0
VERTEX
  8
0
 10
43.638571
 20
57.616417
 42
0.026469
  0
VERTEX
  8
0
 10
39.173409
 20
60.454590
 42
0.027778
  0
VERTEX
  8
0
 10
35.155017
 20
62.434185
 42
0.100889
  0
VERTEX
  8
0
 10
32.379420
 20
63.000000
 42
0.098789
  0
VERTEX
  8
0
 10
31.185416
 20
62.761767
 42
0.016486
  0
VERTEX
  8
0
 10
29.046121
 20
61.788797
 42
0.017513
  0
VERTEX
  8
0
 10
26.575053
 20
60.455363
 42
0.014728
  0
SEQEND
  0
POLYLINE
  8
0
 66
1
 70
1
  0
VERTEX
  8
0
 10
28.500000
 20
43.792183
 42
0.105158
  0
VERTEX
  8
0
 10
25.366290
 20
40.986347
 42
0.132641
  0
VERTEX
  8
0
 10
23.973953
 20
37.367156
 42
0.128261
  0
VERTEX
  8
0
 10
24.573115
 20
33.445599
 42
0.094948
  0
VERTEX
  8
0
 10
27.046391
 20
29.799763
 42
0.024572
  0
VERTEX
  8
0
 10
28.838264
 20
28.175859
 42
0.084052
  0
VERTEX
  8
0
 10
30.198653
 20
27.398003
 42
0.093548
  0
VERTEX
  8
0
 10
31.658202
 20
27.154737
 42
0.034883
  0
VERTEX
  8
0
 10
33.736611
 20
27.344684
 42
0.066720
  0
VERTEX
  8
0
 10
37.111655
 20
28.366994
 42
0.105782
  0
VERTEX
  8
0
 10
39.528678
 20
30.159599
 42
0.108373
  0
VERTEX
  8
0
 10
40.963480
 20
32.749111
 42
0.072645
  0
VERTEX
  8
0
 10
41.454545
 20
36.111183
 42
0.126611
  0
VERTEX
  8
0
 10
40.311292
 20
40.553638
 42
0.133748
  0
VERTEX
  8
0
 10
37.180248
 20
43.784681
 42
0.135136
  0
VERTEX
  8
0
 10
32.870637
 20
44.961419
 42
0.130385
  0
SEQEND
  0
ENDSEC
  0
EOF
