  0
SECTION
  2
HEADER
  9
$ACADVER
  1
AC1006
  9
$EXTMIN
 10
0.000000
 20
0.000000
 30
0.000000
  9
$EXTMAX
 10
64.000000
 20
64.000000
 30
0.000000
  0
ENDSEC
  0
SECTION
  2
ENTITIES
  0
POLYLINE
  8
0
 66
1
 70
1
  0
VERTEX
  8
0
 10
26.163896
 20
53.923564
 42
-0.016832
  0
VERTEX
  8
0
 10
24.183128
 20
50.955030
 42
-0.012114
  0
VERTEX
  8
0
 10
21.783639
 20
47.774282
 42
-0.012257
  0
VERTEX
  8
0
 10
19.350767
 20
44.856608
 42
-0.025748
  0
VERTEX
  8
0
 10
17.294202
 20
42.740099
 42
0.039521
  0
VERTEX
  8
0
 10
13.550657
 20
38.669086
 42
0.057287
  0
VERTEX
  8
0
 10
11.000122
 20
34.509686
 42
0.059919
  0
VERTEX
  8
0
 10
9.535273
 20
30.028249
 42
0.048793
  0
VERTEX
  8
0
 10
9.037275
 20
25.000000
 42
0.015375
  0
VERTEX
  8
0
 10
9.180317
 20
20.158957
 42
0.157647
  0
VERTEX
  8
0
 10
9.901107
 20
18.317045
 42
0.316861
  0
VERTEX
  8
0
 10
11.267298
 20
17.936933
 42
0.055583
  0
VERTEX
  8
0
 10
13.804610
 20
19.173225
 42
0.026958
  0
VERTEX
  8
0
 10
15.301340
 20
20.238018
 42
0.074376
  0
VERTEX
  8
0
 10
16.181254
 20
21.182406
 42
0.110695
  0
VERTEX
  8
0
 10
16.549434
 20
22.101274
 42
0.117521
  0
VERTEX
  8
0
 10
16.478376
 20
23.068131
 42
-0.151975
  0
VERTEX
  8
0
 10
16.453309
 20
27.473490
 42
-0.068428
  0
VERTEX
  8
0
 10
18.902753
 20
32.778029
 42
-0.067413
  0
VERTEX
  8
0
 10
22.766085
 20
37.328982
 42
-0.129748
  0
VERTEX
  8
0
 10
26.991823
 20
39.498204
 42
0.096173
  0
VERTEX
  8
0
 10
28.588260
 20
40.188195
 42
0.169227
  0
VERTEX
  8
0
 10
29.432322
 20
41.331843
 42
0.056184
  0
VERTEX
  8
0
 10
29.867717
 20
43.616947
 42
0.003796
  0
VERTEX
  8
0
 10
30.321936
 20
50.243432
 42
0.002309
  0
VERTEX
  8
0
 10
30.541917
 20
54.151572
 42
0.003726
  0
VERTEX
  8
0
 10
30.689039
 20
57.481204
 42
0.000745
  0
VERTEX
  8
0
 10
30.792050
 20
60.405178
 42
0.207692
  0
VERTEX
  8
0
 10
30.703340
 20
60.629994
 42
0.469119
  0
VERTEX
  8
0
 10
30.538094
 20
60.614768
 42
0.001650
  0
VERTEX
  8
0
 10
29.272141
 20
58.757717
 42
0.006329
  0
VERTEX
  8
0
 10
27.830832
 20
56.569203
 42
0.003744
  0
SEQEND
  0
POLYLINE
  8
0
 66
1
 70
1
  0
VERTEX
  8
0
 10
36.000000
 20
44.039100
 42
0.026645
  0
VERTEX
  8
0
 10
36.117388
 20
41.837883
 42
0.095742
  0
VERTEX
  8
0
 10
36.527836
 20
40.498966
 42
0.110243
  0
VERTEX
  8
0
 10
37.372424
 20
39.512278
 42
0.041522
  0
VERTEX
  8
0
 10
38.921162
 20
38.540769
 42
-0.070632
  0
VERTEX
  8
0
 10
42.218457
 20
36.195352
 42
-0.078008
  0
VERTEX
  8
0
 10
44.603998
 20
33.094719
 42
-0.072015
  0
VERTEX
  8
0
 10
46.054096
 20
29.198546
 42
-0.049388
  0
VERTEX
  8
0
 10
46.590696
 20
24.504556
 42
0.000000
  0
VERTEX
  8
0
 10
46.681392
 20
18.509111
 42
0.000000
  0
VERTEX
  8
0
 10
54.840696
 20
13.250278
 42
0.003473
  0
VERTEX
  8
0
 10
57.970107
 20
11.263935
 42
0.006003
  0
VERTEX
  8
0
 10
60.603204
 20
9.661803
 42
0.001721
  0
VERTEX
  8
0
 10
62.857824
 20
8.337243
 42
0.578727
  0
VERTEX
  8
0
 10
63.000000
 20
8.418938
 42
0.116046
  0
VERTEX
  8
0
 10
62.927063
 20
8.728964
 42
0.001052
  0
VERTEX
  8
0
 10
61.853455
 20
10.873098
 42
0.003526
  0
VERTEX
  8
0
 10
60.592914
 20
13.334022
 42
0.002262
  0
VERTEX
  8
0
 10
59.096869
 20
16.173216
 42
-0.015975
  0
VERTEX
  8
0
 10
57.520017
 20
19.375723
 42
-0.012522
  0
VERTEX
  8
0
 10
56.010095
 20
22.941626
 42
-0.012711
  0
VERTEX
  8
0
 10
54.772020
 20
26.332504
 42
-0.030106
  0
VERTEX
  8
0
 10
54.069693
 20
28.925937
 42
0.048222
  0
VERTEX
  8
0
 10
52.174545
 20
35.038568
 42
0.073158
  0
VERTEX
  8
0
 10
49.303825
 20
39.794537
 42
0.073228
  0
VERTEX
  8
0
 10
45.187380
 20
43.519238
 42
0.048414
  0
VERTEX
  8
0
 10
39.558006
 20
46.540210
 42
0.000000
  0
VERTEX
  8
0
 10
36.000000
 20
48.026840
 42
0.000000
  0
SEQEND
  0
POLYLINE
  8
0
 66
1
 70
1
  0
VERTEX
  8
0
 10
27.382941
 20
33.416712
 42
0.105969
  0
VERTEX
  8
0
 10
24.001094
 20
30.740462
 42
0.125088
  0
VERTEX
  8
0
 10
22.262639
 20
27.060319
 42
0.123152
  0
VERTEX
  8
0
 10
22.479118
 20
22.951467
 42
0.100789
  0
VERTEX
  8
0
 10
24.588894
 20
19.076725
 42
0.033336
  0
VERTEX
  8
0
 10
26.143426
 20
17.461177
 42
0.081776
  0
VERTEX
  8
0
 10
27.522798
 20
16.567661
 42
0.076520
  0
VERTEX
  8
0
 10
29.172074
 20
16.130906
 42
0.026539
  0
VERTEX
  8
0
 10
31.636643
 20
16.000000
 42
0.080642
  0
VERTEX
  8
0
 10
35.430762
 20
16.615939
 42
0.107282
  0
VERTEX
  8
0
 10
38.426849
 20
18.394086
 42
0.111983
  0
VERTEX
  8
0
 10
40.330440
 20
21.186165
 42
0.094116
  0
VERTEX
  8
0
 10
41.000000
 20
24.711764
 42
0.046824
  0
VERTEX
  8
0
 10
40.716496
 20
27.732467
 42
0.082409
  0
VERTEX
  8
0
 10
39.855127
 20
30.080482
 42
0.086982
  0
VERTEX
  8
0
 10
38.321169
 20
31.940657
 42
0.057674
  0
VERTEX
  8
0
 10
36.020016
 20
33.489650
 42
0.030004
  0
VERTEX
  8
0
 10
33.586581
 20
34.568364
 42
0.091684
  0
VERTEX
  8
0
 10
31.815310
 20
34.880466
 42
0.087188
  0
VERTEX
  8
0
 10
29.999462
 20
34.545569
 42
0.025501
  0
SEQEND
  0
POLYLINE
  8
0
 66
1
 70
1
  0
VERTEX
  8
0
 10
9.944522
 20
10.908527
 42
0.000000
  0
VERTEX
  8
0
 10
0.500000
 20
6.101594
 42
0.000000
  0
VERTEX
  8
0
 10
9.122882
 20
6.050797
 42
-0.012169
  0
VERTEX
  8
0
 10
13.546230
 20
5.917047
 42
-0.026508
  0
VERTEX
  8
0
 10
16.920575
 20
5.552669
 42
-0.032387
  0
VERTEX
  8
0
 10
19.775321
 20
4.898319
 42
-0.031610
  0
VERTEX
  8
0
 10
22.545659
 20
3.876778
 42
0.066271
  0
VERTEX
  8
0
 10
27.658816
 20
2.383617
 42
0.059016
  0
VERTEX
  8
0
 10
33.195191
 20
2.195983
 42
0.058037
  0
VERTEX
  8
0
 10
38.711031
 20
3.313876
 42
0.059792
  0
VERTEX
  8
0
 10
43.763043
 20
5.663610
 42
0.011693
  0
VERTEX
  8
0
 10
45.539596
 20
6.822922
 42
0.015672
  0
VERTEX
  8
0
 10
47.090426
 20
7.960560
 42
0.012800
  0
VERTEX
  8
0
 10
48.311666
 20
8.968168
 42
0.136542
  0
VERTEX
  8
0
 10
48.663117
 20
9.500000
 42
0.231355
  0
VERTEX
  8
0
 10
48.591859
 20
9.997853
 42
0.046147
  0
VERTEX
  8
0
 10
48.004195
 20
10.711187
 42
0.040179
  0
VERTEX
  8
0
 10
47.099327
 20
11.487613
 42
0.027855
  0
VERTEX
  8
0
 10
45.966214
 20
12.218935
 42
0.022430
  0
VERTEX
  8
0
 10
44.063511
 20
13.191662
 42
0.117326
  0
VERTEX
  8
0
 10
42.917469
 20
13.417015
 42
0.109232
  0
VERTEX
  8
0
 10
41.752785
 20
13.110891
 42
0.018230
  0
VERTEX
  8
0
 10
39.723088
 20
11.972673
 42
-0.089746
  0
VERTEX
  8
0
 10
35.322616
 20
10.273341
 42
-0.071894
  0
VERTEX
  8
0
 10
30.239874
 20
10.039495
 42
-0.072383
  0
VERTEX
  8
0
 10
25.332963
 20
11.251116
 42
-0.093632
  0
VERTEX
  8
0
 10
21.444522
 20
13.761699
 42
0.091740
  0
VERTEX
  8
0
 10
19.930056
 20
14.747591
 42
0.160685
  0
VERTEX
  8
0
 10
18.453239
 20
14.859235
 42
0.053469
  0
VERTEX
  8
0
 10
16.192543
 20
14.033948
 42
0.003483
  0
SEQEND
  0
ENDSEC
  0
EOF
