  0
SECTION
  2
HEADER
  9
$ACADVER
  1
AC1006
  9
$EXTMIN
 10
0.000000
 20
0.000000
 30
0.000000
  9
$EXTMAX
 10
64.000000
 20
64.000000
 30
0.000000
  0
ENDSEC
  0
SECTION
  2
ENTITIES
  0
POLYLINE
  8
0
 66
1
 70
1
  0
VERTEX
  8
0
 10
25.848502
 20
60.231801
 42
-0.045686
  0
VERTEX
  8
0
 10
24.488680
 20
58.886632
 42
-0.019319
  0
VERTEX
  8
0
 10
22.443022
 20
57.331384
 42
-0.018923
  0
VERTEX
  8
0
 10
20.115634
 20
55.827864
 42
-0.023466
  0
VERTEX
  8
0
 10
17.839164
 20
54.617125
 42
0.025142
  0
VERTEX
  8
0
 10
14.098948
 20
52.611791
 42
0.044097
  0
VERTEX
  8
0
 10
11.264704
 20
50.542863
 42
0.044727
  0
VERTEX
  8
0
 10
8.863763
 20
48.030402
 42
0.026716
  0
VERTEX
  8
0
 10
6.460810
 20
44.663729
 42
0.000000
  0
VERTEX
  8
0
 10
4.656926
 20
41.827457
 42
0.000000
  0
VERTEX
  8
0
 10
8.468010
 20
44.413729
 42
-0.081972
  0
VERTEX
  8
0
 10
13.193889
 20
46.596310
 42
-0.093182
  0
VERTEX
  8
0
 10
18.158761
 20
47.010579
 42
-0.092350
  0
VERTEX
  8
0
 10
22.970117
 20
45.591775
 42
-0.078957
  0
VERTEX
  8
0
 10
27.251019
 20
42.480174
 42
-0.097787
  0
VERTEX
  8
0
 10
30.626533
 20
37.435820
 42
-0.107799
  0
VERTEX
  8
0
 10
31.677228
 20
31.662094
 42
-0.107572
  0
VERTEX
  8
0
 10
30.228313
 20
25.965801
 42
-0.097019
  0
VERTEX
  8
0
 10
26.509026
 20
21.142069
 42
-0.058341
  0
VERTEX
  8
0
 10
22.869814
 20
18.631009
 42
-0.084422
  0
VERTEX
  8
0
 10
19.168006
 20
17.408423
 42
-0.083087
  0
VERTEX
  8
0
 10
15.225972
 20
17.468545
 42
-0.054729
  0
VERTEX
  8
0
 10
10.871137
 20
18.769945
 42
0.005152
  0
VERTEX
  8
0
 10
8.093153
 20
19.910018
 42
0.070347
  0
VERTEX
  8
0
 10
7.033990
 20
20.167719
 42
0.453005
  0
VERTEX
  8
0
 10
6.733662
 20
19.886531
 42
0.117212
  0
VERTEX
  8
0
 10
6.931953
 20
19.158043
 42
0.066123
  0
VERTEX
  8
0
 10
8.779019
 20
16.630960
 42
0.027622
  0
VERTEX
  8
0
 10
11.865891
 20
13.741704
 42
0.027694
  0
VERTEX
  8
0
 10
15.350684
 20
11.137695
 42
0.049895
  0
VERTEX
  8
0
 10
18.500000
 20
9.471385
 42
-0.039516
  0
VERTEX
  8
0
 10
20.254717
 20
8.588991
 42
-0.022529
  0
VERTEX
  8
0
 10
22.228304
 20
7.267614
 42
-0.022389
  0
VERTEX
  8
0
 10
24.106526
 20
5.749374
 42
-0.034265
  0
VERTEX
  8
0
 10
25.575077
 20
4.258090
 42
0.000000
  0
VERTEX
  8
0
 10
28.650154
 20
0.674772
 42
0.000000
  0
VERTEX
  8
0
 10
31.450336
 20
4.346000
 42
-0.037968
  0
VERTEX
  8
0
 10
32.822007
 20
5.886461
 42
-0.023703
  0
VERTEX
  8
0
 10
34.639607
 20
7.480616
 42
-0.023741
  0
VERTEX
  8
0
 10
36.592027
 20
8.889643
 42
-0.039310
  0
VERTEX
  8
0
 10
38.375259
 20
9.861694
 42
0.045829
  0
VERTEX
  8
0
 10
42.025346
 20
11.913441
 42
0.045188
  0
VERTEX
  8
0
 10
45.259282
 20
14.604342
 42
0.043047
  0
VERTEX
  8
0
 10
48.088261
 20
17.960019
 42
0.034770
  0
VERTEX
  8
0
 10
50.532200
 20
21.992301
 42
-0.031009
  0
VERTEX
  8
0
 10
51.683552
 20
23.924535
 42
-0.020271
  0
VERTEX
  8
0
 10
53.233007
 20
26.006007
 42
-0.020402
  0
VERTEX
  8
0
 10
54.915137
 20
27.919103
 42
-0.036346
  0
VERTEX
  8
0
 10
56.468108
 20
29.326021
 42
0.000000
  0
VERTEX
  8
0
 10
60.083690
 20
32.152041
 42
0.000000
  0
VERTEX
  8
0
 10
56.318775
 20
35.144019
 42
-0.036092
  0
VERTEX
  8
0
 10
54.718997
 20
36.615514
 42
-0.021320
  0
VERTEX
  8
0
 10
53.022004
 20
38.580460
 42
-0.021264
  0
VERTEX
  8
0
 10
51.487131
 20
40.698009
 42
-0.033905
  0
VERTEX
  8
0
 10
50.382627
 20
42.641038
 42
0.030825
  0
VERTEX
  8
0
 10
48.144278
 20
46.635738
 42
0.051210
  0
VERTEX
  8
0
 10
45.735210
 20
49.647315
 42
0.053029
  0
VERTEX
  8
0
 10
42.828335
 20
52.035755
 42
0.035927
  0
VERTEX
  8
0
 10
39.083995
 20
54.130299
 42
-0.030107
  0
VERTEX
  8
0
 10
37.106387
 20
55.206555
 42
-0.019459
  0
VERTEX
  8
0
 10
34.950698
 20
56.673458
 42
-0.019567
  0
VERTEX
  8
0
 10
32.948559
 20
58.277816
 42
-0.034616
  0
VERTEX
  8
0
 10
31.450295
 20
59.771537
 42
0.000000
  0
VERTEX
  8
0
 10
28.400590
 20
63.264786
 42
0.000000
  0
SEQEND
  0
ENDSEC
  0
EOF
